# xmcd CD database file
#
# Track frame offsets:
#	150
#	41615
#	81735
#	113135
#	154762
#	209732
#
# Disc length: 3291 seconds
#
# Revision: 0
# Processed by: cddbd v1.5.2PL0 Copyright (c) Steve Scherf et al.
# Submitted via: CDex 1.70beta2
#
DISCID=530cd906
DTITLE=Cecil Taylor - Live At The Caffe Montmartre Disc 1
DYEAR=1962
DGENRE=Jazz
TTITLE0=Trance
TTITLE1=Call
TTITLE2=Lena
TTITLE3=Nefertete, The Beautiful One Has Come(1'st Variation)
TTITLE4=What's New
TTITLE5=Nefertete, The Beautiful One Has Come(2'nd Variation)
EXTD=YEAR: 1962
EXTT0=
EXTT1=
EXTT2=
EXTT3=
EXTT4=
EXTT5=
PLAYORDER=
